<?xml version="1.0" encoding="utf-8"?>
<!-- Generator: Adobe Illustrator 19.1.1, SVG Export Plug-In . SVG Version: 6.00 Build 0)  -->
<svg version="1.1" id="Logo" xmlns="http://www.w3.org/2000/svg" xmlns:xlink="http://www.w3.org/1999/xlink" x="0px" y="0px"
	 viewBox="0 0 363.4 159.9" style="enable-background:new 0 0 363.4 159.9;" xml:space="preserve">
<style type="text/css">
	.st0{fill:#807E82;}
	.st1{fill:#006FBA;}
</style>
<path class="st0" d="M70.8,120.2L45.9,81H25.8v39.2H0.2V0h53.1c27.4,0,43.8,16.4,43.8,40.3v0.3c0,18.8-10.1,31.5-24.9,37l28.4,42.5
	H70.8z M71.3,41.7c0-11-7.6-18.6-20.1-18.6H25.8v36.4h25.9c12.4,0,19.6-7.6,19.6-17.4V41.7z"/>
<path class="st1" d="M176.7,120.2c-35.9,0-61.6-26.7-61.6-59.8v-0.3c0-33,26.1-60.1,61.9-60.1c35.9,0,61.6,26.7,61.6,59.8v0.3
	C238.6,93.1,212.5,120.2,176.7,120.2z M211.9,60.1c0-19.9-14.6-36.5-35.2-36.5s-34.9,16.3-34.9,36.2v0.3c0,19.9,14.6,36.5,35.2,36.5
	s34.9-16.3,34.9-36.2V60.1z"/>
<path class="st0" d="M315.8,120.2c-34.2,0-59.6-26.4-59.6-59.8v-0.3c0-33,24.9-60.1,60.6-60.1c21.9,0,35,7.3,45.8,17.9l-16.3,18.8
	c-9-8.1-18.1-13.1-29.7-13.1c-19.6,0-33.7,16.3-33.7,36.2v0.3c0,19.9,13.8,36.5,33.7,36.5c13.3,0,21.4-5.3,30.5-13.6l16.3,16.4
	C351.5,112.2,338.2,120.2,315.8,120.2z"/>
<path class="st1" d="M14.4,140.3h2.2v19.6h-1.8L2.2,143.8v16.1H0v-19.6h2.1L14.4,156V140.3z"/>
<path class="st1" d="M59.1,142.3h-12v6.7h10.7v2H47.2v6.9h12.1v2H45v-19.6h14.2V142.3z"/>
<path class="st1" d="M93.4,159.9h-6.8v-19.6h6.8c6.2,0,10.4,4.2,10.4,9.8S99.5,159.9,93.4,159.9z M93.4,142.3h-4.6v15.5h4.6
	c5,0,8.1-3.4,8.1-7.7C101.5,145.7,98.3,142.3,93.4,142.3z"/>
<path class="st1" d="M145.5,142.3h-12v6.7h10.7v2h-10.7v6.9h12.1v2h-14.3v-19.6h14.2V142.3z"/>
<path class="st1" d="M186.4,159.9l-5.7-7.6h-5.6v7.6h-2.2v-19.6h8.4c4.3,0,7.1,2.3,7.1,5.9c0,3.3-2.2,5.2-5.3,5.7l6,8H186.4z
	 M181.2,142.3h-6v8h6c2.9,0,5-1.5,5-4.1C186.2,143.8,184.4,142.3,181.2,142.3z"/>
<path class="st1" d="M216,140.3h2.2v17.6h11v2H216V140.3z"/>
<path class="st1" d="M274.5,159.9h-2.4l-2.3-5.2h-10.7l-2.3,5.2h-2.3l8.9-19.7h2.1L274.5,159.9z M264.5,142.7l-4.5,10h8.9
	L264.5,142.7z"/>
<path class="st1" d="M315.6,140.3h2.2v19.6H316l-12.7-16.1v16.1h-2.2v-19.6h2.1l12.3,15.7V140.3z"/>
<path class="st1" d="M352.9,159.9h-6.8v-19.6h6.8c6.2,0,10.4,4.2,10.4,9.8S359.1,159.9,352.9,159.9z M352.9,142.3h-4.6v15.5h4.6
	c5,0,8.1-3.4,8.1-7.7C361.1,145.7,357.9,142.3,352.9,142.3z"/>
</svg>
